<?xml version="1.0" encoding="utf-8"?>
<!-- Generator: Adobe Illustrator 16.0.0, SVG Export Plug-In . SVG Version: 6.00 Build 0)  -->
<!DOCTYPE svg PUBLIC "-//W3C//DTD SVG 1.1//EN" "http://www.w3.org/Graphics/SVG/1.1/DTD/svg11.dtd">
<svg version="1.1" id="Layer_1" xmlns="http://www.w3.org/2000/svg" xmlns:xlink="http://www.w3.org/1999/xlink" x="0px" y="0px"
	 width="128.648px" height="48px" viewBox="0 0 128.648 48" enable-background="new 0 0 128.648 48" xml:space="preserve">
<g>
	<defs>
		<rect id="SVGID_1_" x="-7.759" y="-12.403" width="144" height="72"/>
	</defs>
	<clipPath id="SVGID_2_">
		<use xlink:href="#SVGID_1_"  overflow="visible"/>
	</clipPath>
	<path clip-path="url(#SVGID_2_)" fill="#FCC249" d="M5.531,0C5.531,0,0,0,0,5.531v36.938C0,42.469,0,48,5.531,48h117.586
		c0,0,5.531,0,5.531-5.531V5.531c0,0,0-5.531-5.531-5.531H5.531z"/>
</g>
<g>
	<path fill="#231F20" d="M20.659,23.481c0,1.915-0.545,3.38-1.635,4.399c-1.089,1.019-2.663,1.527-4.721,1.527h-3.293V17.778h3.651
		c1.898,0,3.373,0.501,4.423,1.503C20.134,20.283,20.659,21.684,20.659,23.481z M18.098,23.545c0-2.498-1.103-3.747-3.309-3.747
		h-1.312v7.573h1.058C16.91,27.371,18.098,26.096,18.098,23.545z"/>
	<path fill="#231F20" d="M31.596,24.944c0,1.448-0.382,2.58-1.146,3.397c-0.764,0.816-1.827,1.225-3.19,1.225
		c-0.854,0-1.606-0.188-2.259-0.561c-0.652-0.374-1.153-0.911-1.503-1.611s-0.525-1.517-0.525-2.45c0-1.453,0.379-2.582,1.137-3.388
		s1.824-1.209,3.198-1.209c0.854,0,1.607,0.186,2.259,0.557s1.153,0.904,1.503,1.599C31.421,23.197,31.596,24.011,31.596,24.944z
		 M25.447,24.944c0,0.881,0.145,1.546,0.434,1.997s0.76,0.676,1.412,0.676c0.647,0,1.112-0.224,1.396-0.672s0.425-1.115,0.425-2.001
		c0-0.88-0.143-1.54-0.429-1.98c-0.287-0.44-0.756-0.66-1.408-0.66c-0.647,0-1.114,0.219-1.4,0.656
		C25.59,23.397,25.447,24.06,25.447,24.944z"/>
	<path fill="#231F20" d="M42.445,29.407h-2.426v-5.194c0-0.642-0.114-1.123-0.342-1.444c-0.228-0.321-0.591-0.481-1.089-0.481
		c-0.679,0-1.169,0.227-1.472,0.68c-0.302,0.453-0.454,1.205-0.454,2.255v4.184h-2.426v-8.893h1.853l0.326,1.137h0.135
		c0.271-0.429,0.643-0.754,1.118-0.974s1.014-0.33,1.619-0.33c1.034,0,1.819,0.28,2.354,0.839c0.536,0.56,0.804,1.367,0.804,2.422
		V29.407z"/>
	<path fill="#231F20" d="M51.226,29.407l-0.469-1.209h-0.063c-0.409,0.515-0.829,0.871-1.261,1.069
		c-0.432,0.199-0.996,0.299-1.69,0.299c-0.854,0-1.526-0.244-2.017-0.731c-0.491-0.488-0.736-1.183-0.736-2.085
		c0-0.943,0.33-1.64,0.99-2.088s1.656-0.696,2.987-0.743l1.543-0.048v-0.39c0-0.901-0.461-1.352-1.384-1.352
		c-0.71,0-1.546,0.215-2.505,0.644l-0.804-1.638c1.023-0.536,2.158-0.804,3.405-0.804c1.193,0,2.108,0.26,2.744,0.78
		c0.636,0.52,0.955,1.31,0.955,2.37v5.926H51.226z M50.51,25.287l-0.938,0.031c-0.706,0.021-1.23,0.148-1.575,0.382
		s-0.517,0.589-0.517,1.066c0,0.684,0.393,1.025,1.177,1.025c0.562,0,1.012-0.161,1.348-0.484c0.337-0.324,0.505-0.753,0.505-1.289
		V25.287z"/>
	<path fill="#231F20" d="M59.799,27.634c0.424,0,0.934-0.093,1.527-0.279v1.806c-0.604,0.271-1.347,0.406-2.227,0.406
		c-0.971,0-1.677-0.245-2.12-0.736c-0.443-0.49-0.664-1.226-0.664-2.207v-4.288h-1.161V21.31l1.336-0.812l0.7-1.877h1.551v1.893
		h2.49v1.821h-2.49v4.288c0,0.345,0.097,0.6,0.29,0.764C59.225,27.551,59.481,27.634,59.799,27.634z"/>
	<path fill="#231F20" d="M67.784,29.566c-1.432,0-2.551-0.396-3.356-1.186c-0.806-0.79-1.209-1.909-1.209-3.356
		c0-1.49,0.373-2.642,1.118-3.457c0.744-0.814,1.775-1.221,3.09-1.221c1.256,0,2.234,0.358,2.936,1.074
		c0.699,0.716,1.049,1.705,1.049,2.967v1.178h-5.734c0.025,0.689,0.23,1.228,0.613,1.614c0.381,0.388,0.916,0.581,1.605,0.581
		c0.535,0,1.043-0.056,1.52-0.167s0.977-0.289,1.496-0.533v1.877c-0.426,0.213-0.879,0.37-1.361,0.474S68.479,29.566,67.784,29.566z
		 M67.442,22.073c-0.514,0-0.918,0.163-1.209,0.489s-0.459,0.789-0.502,1.388h3.406c-0.012-0.599-0.168-1.062-0.471-1.388
		S67.956,22.073,67.442,22.073z"/>
</g>
<text transform="matrix(1 0 0 1 72.1934 29.4072)" fill="#231F20" font-family="'OpenSans-Extrabold'" font-size="16.2079"> </text>
<g>
	<defs>
		<rect id="SVGID_3_" x="80.689" y="4.25" width="37.247" height="31.401"/>
	</defs>
	<clipPath id="SVGID_4_">
		<use xlink:href="#SVGID_3_"  overflow="visible"/>
	</clipPath>
	<path clip-path="url(#SVGID_4_)" d="M102.533,15.998H83.08c-1.318,0-2.391,1.072-2.391,2.391v14.873
		c0,1.318,1.072,2.391,2.391,2.391h32.241c1.318,0,2.391-1.072,2.391-2.391V18.389c0-1.319-1.072-2.391-2.391-2.391h-5.476
		l7.496-7.496c0.383-0.384,0.595-0.894,0.595-1.437s-0.212-1.053-0.595-1.437l-0.782-0.782c-0.793-0.793-2.082-0.793-2.875,0
		L102.533,15.998z M111.786,8.844l1.557,1.557L98.507,25.236l-2.336,0.779l0.779-2.336L111.786,8.844z M114.735,5.895
		c0.214-0.214,0.561-0.214,0.774,0l0.782,0.782c0.104,0.104,0.161,0.241,0.161,0.388c0,0.146-0.057,0.284-0.161,0.388l-1.899,1.899
		l-1.334-1.334l-0.224-0.223L114.735,5.895z M116.228,33.262c0,0.5-0.406,0.907-0.906,0.907H83.08c-0.5,0-0.907-0.407-0.907-0.907
		V18.389c0-0.5,0.407-0.907,0.907-0.907h17.969l-5.271,5.273c-0.082,0.081-0.144,0.18-0.181,0.29l-1.303,3.91
		c-0.089,0.266-0.019,0.56,0.179,0.759c0.143,0.141,0.331,0.217,0.525,0.217c0.079,0,0.158-0.012,0.235-0.038l3.909-1.303
		c0.109-0.036,0.208-0.098,0.29-0.179l8.93-8.929h6.959c0.5,0,0.906,0.407,0.906,0.907V33.262z"/>
	<path clip-path="url(#SVGID_4_)" d="M113.505,31.019h-0.442c-0.41,0-0.742,0.332-0.742,0.742s0.332,0.742,0.742,0.742h0.442
		c0.41,0,0.742-0.332,0.742-0.742S113.915,31.019,113.505,31.019"/>
	<path clip-path="url(#SVGID_4_)" d="M110.113,31.019H93.228c-0.408,0-0.741,0.332-0.741,0.742s0.333,0.742,0.741,0.742h16.886
		c0.409,0,0.741-0.332,0.741-0.742S110.522,31.019,110.113,31.019"/>
	<path clip-path="url(#SVGID_4_)" d="M113.505,26.742h-11.061c-0.41,0-0.742,0.332-0.742,0.742s0.332,0.742,0.742,0.742h11.061
		c0.41,0,0.742-0.332,0.742-0.742S113.915,26.742,113.505,26.742"/>
	<path clip-path="url(#SVGID_4_)" d="M88.516,24.332v-2.751c0.949,0.068,1.301,0.502,1.627,0.502c0.406,0,0.597-0.515,0.597-0.773
		c0-0.664-1.302-0.949-2.224-0.976v-0.366c0-0.162-0.203-0.311-0.406-0.311c-0.23,0-0.393,0.149-0.393,0.311v0.393
		c-1.288,0.136-2.575,0.814-2.575,2.521c0,1.735,1.355,2.223,2.575,2.656v3.185c-1.383-0.107-1.748-1.057-2.196-1.057
		c-0.338,0-0.623,0.447-0.623,0.773c0,0.663,1.139,1.571,2.819,1.599v0.42c0,0.162,0.162,0.312,0.393,0.312
		c0.203,0,0.406-0.149,0.406-0.312v-0.461c1.464-0.203,2.467-1.125,2.467-2.792C90.982,25.362,89.694,24.766,88.516,24.332
		 M87.798,24.075c-0.718-0.271-1.301-0.556-1.301-1.328c0-0.705,0.542-1.044,1.301-1.139V24.075z M88.435,28.696v-2.86
		c0.664,0.285,1.193,0.665,1.193,1.518C89.628,28.127,89.167,28.561,88.435,28.696"/>
</g>
</svg>
