<?xml version="1.0" encoding="utf-8"?>
<!-- Generator: Adobe Illustrator 16.0.0, SVG Export Plug-In . SVG Version: 6.00 Build 0)  -->
<!DOCTYPE svg PUBLIC "-//W3C//DTD SVG 1.1//EN" "http://www.w3.org/Graphics/SVG/1.1/DTD/svg11.dtd">
<svg version="1.1" id="Layer_1" xmlns="http://www.w3.org/2000/svg" xmlns:xlink="http://www.w3.org/1999/xlink" x="0px" y="0px"
	 width="128.647px" height="48px" viewBox="0 0 128.647 48" enable-background="new 0 0 128.647 48" xml:space="preserve">
<g>
	<defs>
		<rect id="SVGID_1_" x="-8.54" y="-15.306" width="144" height="72"/>
	</defs>
	<clipPath id="SVGID_2_">
		<use xlink:href="#SVGID_1_"  overflow="visible"/>
	</clipPath>
	<path clip-path="url(#SVGID_2_)" fill="#FCC249" d="M5.531,0C5.531,0,0,0,0,5.531v36.938C0,42.469,0,48,5.531,48h117.586
		c0,0,5.53,0,5.53-5.531V5.531c0,0,0-5.531-5.53-5.531H5.531z"/>
	<path clip-path="url(#SVGID_2_)" fill="#231F20" d="M65.694,28.617c0.482-0.103,0.937-0.261,1.36-0.473v-1.878
		c-0.521,0.244-1.019,0.422-1.496,0.533c-0.478,0.112-0.983,0.167-1.52,0.167c-0.688,0-1.225-0.193-1.606-0.58
		C62.05,26,61.847,25.46,61.82,24.771h5.735v-1.177c0-1.262-0.351-2.251-1.05-2.967c-0.7-0.716-1.679-1.074-2.936-1.074
		c-1.315,0-2.346,0.407-3.091,1.221c-0.745,0.814-1.117,1.966-1.117,3.456c0,1.448,0.403,2.567,1.209,3.357
		c0.806,0.79,1.925,1.185,3.357,1.185C64.622,28.772,65.212,28.72,65.694,28.617 M64.812,21.768
		c0.302,0.326,0.458,0.789,0.469,1.388h-3.405c0.043-0.599,0.21-1.062,0.502-1.388c0.291-0.326,0.694-0.489,1.209-0.489
		C64.101,21.279,64.509,21.442,64.812,21.768 M55.16,26.593c-0.194-0.165-0.291-0.419-0.291-0.764v-4.287h2.49V19.72h-2.49v-1.893
		h-1.551l-0.7,1.877l-1.336,0.811v1.027h1.161v4.287c0,0.98,0.221,1.717,0.664,2.207s1.15,0.735,2.12,0.735
		c0.88,0,1.623-0.135,2.227-0.406v-1.805c-0.594,0.187-1.103,0.278-1.527,0.278C55.608,26.839,55.353,26.757,55.16,26.593
		 M46.621,25.224c0,0.536-0.168,0.966-0.505,1.289c-0.337,0.324-0.786,0.485-1.348,0.485c-0.785,0-1.178-0.343-1.178-1.026
		c0-0.477,0.173-0.832,0.517-1.066c0.345-0.232,0.87-0.359,1.575-0.382l0.939-0.031V25.224z M49.03,28.613v-5.926
		c0-1.061-0.318-1.851-0.954-2.37c-0.637-0.52-1.551-0.78-2.745-0.78c-1.246,0-2.381,0.268-3.404,0.803l0.803,1.639
		c0.96-0.43,1.795-0.644,2.506-0.644c0.923,0,1.384,0.451,1.384,1.352v0.39l-1.543,0.048c-1.331,0.048-2.327,0.296-2.987,0.743
		c-0.66,0.448-0.99,1.145-0.99,2.089c0,0.901,0.245,1.597,0.735,2.084c0.491,0.487,1.163,0.731,2.017,0.731
		c0.695,0,1.258-0.099,1.69-0.298s0.853-0.556,1.261-1.07h0.064l0.469,1.209H49.03z M38.54,22.814c0-1.055-0.268-1.862-0.803-2.422
		c-0.536-0.559-1.321-0.839-2.355-0.839c-0.605,0-1.144,0.11-1.619,0.33c-0.474,0.22-0.847,0.545-1.117,0.974h-0.136l-0.326-1.137
		h-1.853v8.893h2.426v-4.184c0-1.05,0.151-1.802,0.453-2.255c0.303-0.453,0.793-0.68,1.472-0.68c0.498,0,0.862,0.159,1.09,0.48
		s0.342,0.802,0.342,1.444v5.193h2.426V22.814z M27.149,21.709c-0.35-0.695-0.851-1.229-1.504-1.599
		c-0.652-0.371-1.405-0.557-2.259-0.557c-1.373,0-2.439,0.403-3.197,1.209c-0.759,0.806-1.138,1.936-1.138,3.389
		c0,0.934,0.175,1.75,0.525,2.45c0.35,0.7,0.851,1.237,1.503,1.61c0.653,0.374,1.406,0.561,2.26,0.561
		c1.362,0,2.426-0.408,3.189-1.225c0.764-0.816,1.146-1.949,1.146-3.396C27.674,23.217,27.5,22.403,27.149,21.709 M21.955,22.167
		c0.287-0.438,0.753-0.656,1.4-0.656c0.653,0,1.122,0.22,1.408,0.66c0.287,0.439,0.43,1.1,0.43,1.98c0,0.886-0.142,1.553-0.426,2
		c-0.283,0.448-0.749,0.672-1.396,0.672c-0.652,0-1.123-0.225-1.412-0.676c-0.289-0.45-0.433-1.116-0.433-1.996
		C21.525,23.265,21.668,22.603,21.955,22.167 M10.597,26.577H9.539v-7.572h1.313c2.206,0,3.309,1.249,3.309,3.747
		C14.161,25.301,12.973,26.577,10.597,26.577 M15.146,18.487c-1.05-1.002-2.524-1.503-4.423-1.503H7.072v11.628h3.293
		c2.058,0,3.632-0.509,4.721-1.526c1.09-1.019,1.635-2.485,1.635-4.399C16.722,20.889,16.196,19.489,15.146,18.487"/>
</g>
<g>
	<defs>
		<rect id="SVGID_3_" x="75.082" y="18.131" width="45.309" height="10.347"/>
	</defs>
	<clipPath id="SVGID_4_">
		<use xlink:href="#SVGID_3_"  overflow="visible"/>
	</clipPath>
	<path clip-path="url(#SVGID_4_)" fill="#336698" d="M109.59,25.372c-0.153,0.096-0.314,0.178-0.483,0.249
		c-0.227,0.091-0.442,0.139-0.642,0.139c-0.307,0-0.541-0.043-0.7-0.135c-0.159-0.088-0.243-0.241-0.24-0.459
		c0-0.252,0.059-0.448,0.18-0.602c0.12-0.147,0.301-0.266,0.524-0.354c0.222-0.075,0.495-0.138,0.812-0.183
		c0.28-0.034,0.836-0.099,0.905-0.1c0.072,0,0.119-0.04,0.087,0.15c-0.014,0.082-0.174,0.739-0.248,1.039
		C109.764,25.206,109.645,25.336,109.59,25.372 M111.768,20.749c-0.467-0.261-1.199-0.393-2.199-0.393
		c-0.494,0-0.991,0.04-1.489,0.118c-0.366,0.056-0.404,0.065-0.633,0.114c-0.467,0.102-0.54,0.571-0.54,0.571l-0.149,0.617
		c-0.085,0.396,0.14,0.379,0.24,0.349c0.205-0.062,0.314-0.123,0.731-0.217c0.399-0.092,0.82-0.158,1.155-0.156
		c0.493,0,0.868,0.055,1.117,0.158c0.249,0.108,0.372,0.294,0.372,0.559c0.001,0.063,0.003,0.122-0.021,0.174
		c-0.021,0.048-0.06,0.095-0.178,0.111c-0.703,0.042-1.207,0.105-1.815,0.195c-0.6,0.084-1.124,0.229-1.562,0.429
		c-0.467,0.208-0.817,0.484-1.059,0.837c-0.234,0.353-0.353,0.781-0.354,1.285c0,0.476,0.172,0.864,0.503,1.166
		c0.335,0.298,0.771,0.444,1.298,0.444c0.33-0.002,0.587-0.025,0.772-0.071c0.183-0.046,0.383-0.112,0.593-0.203
		c0.158-0.066,0.328-0.161,0.507-0.281c0.18-0.12,0.304-0.205,0.464-0.309l0.006,0.01l-0.045,0.198
		c-0.001,0.002-0.003,0.003-0.003,0.005l0.001,0.003c-0.051,0.239,0.092,0.438,0.329,0.461l0.003,0.004h0.021l0.001,0.001
		c0.156,0,0.695,0,0.947-0.001h0.176c0.012,0,0.013-0.003,0.017-0.006c0.242-0.03,0.473-0.227,0.528-0.462l0.898-3.88
		c0.021-0.092,0.037-0.197,0.046-0.318c0.013-0.122,0.025-0.223,0.021-0.296C112.47,21.416,112.233,21.009,111.768,20.749"/>
</g>
<g>
	<defs>
		<rect id="SVGID_5_" x="75.383" y="18.432" width="44.706" height="10.046"/>
	</defs>
	<clipPath id="SVGID_6_">
		<use xlink:href="#SVGID_5_"  overflow="visible"/>
	</clipPath>
	<path clip-path="url(#SVGID_6_)" fill="#1C3664" d="M96.304,20.441c-0.264,0-0.609,0.213-0.772,0.471c0,0-1.765,3.024-1.938,3.326
		c-0.094,0.163-0.189,0.059-0.206-0.001c-0.013-0.074-0.546-3.306-0.546-3.306c-0.06-0.26-0.332-0.482-0.672-0.481l-1.1,0.001
		c-0.266,0-0.431,0.213-0.371,0.469c0,0,0.84,4.767,1.004,5.886c0.082,0.62-0.008,0.73-0.008,0.73l-1.09,1.901
		c-0.16,0.257-0.072,0.468,0.191,0.468l1.274-0.001c0.264,0,0.613-0.21,0.771-0.468l4.903-8.294c0,0,0.469-0.708,0.036-0.702
		C97.486,20.445,96.304,20.441,96.304,20.441"/>
	<path clip-path="url(#SVGID_6_)" fill="#1C3664" d="M83.483,19.666c-0.152-0.298-0.383-0.541-0.675-0.724
		c-0.304-0.187-0.657-0.316-1.068-0.394c-0.414-0.074-0.897-0.111-1.452-0.116l-2.57,0.002c-0.267,0.003-0.528,0.213-0.59,0.469
		l-1.732,7.532c-0.06,0.258,0.107,0.471,0.373,0.471H77c0.266,0,0.528-0.207,0.589-0.471l0.424-1.827
		c0.057-0.256,0.32-0.468,0.587-0.468h0.353c1.505-0.001,2.673-0.309,3.511-0.925s1.258-1.432,1.255-2.439
		C83.721,20.333,83.644,19.962,83.483,19.666 M80.826,22.127c-0.371,0.271-0.886,0.406-1.554,0.406h-0.302
		c-0.266,0-0.434-0.211-0.375-0.47l0.37-1.596c0.057-0.257,0.322-0.471,0.588-0.468l0.403-0.003c0.47,0,0.828,0.081,1.068,0.241
		c0.238,0.155,0.359,0.402,0.355,0.733C81.388,21.469,81.199,21.855,80.826,22.127"/>
</g>
<g>
	<defs>
		<rect id="SVGID_7_" x="75.082" y="18.131" width="45.309" height="10.347"/>
	</defs>
	<clipPath id="SVGID_8_">
		<use xlink:href="#SVGID_7_"  overflow="visible"/>
	</clipPath>
	<path clip-path="url(#SVGID_8_)" fill="#336698" d="M105.83,19.694c-0.153-0.299-0.385-0.539-0.678-0.726
		c-0.3-0.187-0.657-0.317-1.07-0.393c-0.408-0.071-0.895-0.112-1.447-0.114l-2.575,0.002c-0.266,0.004-0.526,0.212-0.587,0.469
		l-1.731,7.534c-0.062,0.256,0.109,0.469,0.369,0.468l1.236-0.003c0.262,0.003,0.528-0.209,0.591-0.465l0.418-1.829
		c0.058-0.256,0.324-0.471,0.591-0.467h0.351c1.508,0,2.677-0.31,3.514-0.927c0.834-0.619,1.254-1.432,1.254-2.441
		C106.062,20.361,105.987,19.989,105.83,19.694 M103.174,22.158c-0.369,0.269-0.887,0.403-1.553,0.403h-0.307
		c-0.265,0.003-0.437-0.211-0.373-0.468l0.369-1.599c0.055-0.253,0.324-0.468,0.585-0.466l0.405-0.002
		c0.472,0.002,0.825,0.081,1.069,0.238c0.24,0.159,0.356,0.405,0.358,0.733C103.729,21.498,103.543,21.884,103.174,22.158"/>
	<path clip-path="url(#SVGID_8_)" fill="#1C3664" d="M87.238,25.366c-0.153,0.096-0.314,0.178-0.483,0.249
		c-0.227,0.091-0.443,0.139-0.642,0.139c-0.305,0-0.541-0.043-0.7-0.135c-0.159-0.088-0.243-0.241-0.24-0.459
		c0-0.252,0.059-0.448,0.18-0.602c0.121-0.147,0.301-0.267,0.523-0.354c0.224-0.076,0.497-0.138,0.812-0.183
		c0.281-0.034,0.836-0.099,0.907-0.1c0.069,0,0.117-0.04,0.086,0.149c-0.015,0.083-0.175,0.74-0.248,1.039
		C87.411,25.201,87.292,25.331,87.238,25.366 M89.416,20.743c-0.467-0.261-1.198-0.394-2.198-0.394c-0.494,0-0.991,0.04-1.49,0.118
		c-0.367,0.055-0.404,0.065-0.632,0.114c-0.469,0.102-0.54,0.571-0.54,0.571l-0.15,0.617c-0.085,0.396,0.14,0.379,0.24,0.349
		c0.204-0.062,0.315-0.123,0.731-0.218c0.398-0.09,0.82-0.157,1.155-0.155c0.493,0,0.867,0.054,1.116,0.158
		c0.25,0.108,0.373,0.294,0.373,0.559c0.001,0.062,0.002,0.122-0.021,0.174c-0.021,0.049-0.06,0.095-0.178,0.111
		c-0.702,0.042-1.207,0.105-1.815,0.194c-0.6,0.084-1.124,0.229-1.562,0.43c-0.468,0.207-0.817,0.484-1.058,0.837
		c-0.235,0.353-0.354,0.781-0.354,1.285c0,0.476,0.172,0.864,0.503,1.166c0.335,0.297,0.771,0.444,1.298,0.444
		c0.329-0.002,0.587-0.025,0.773-0.071c0.182-0.048,0.382-0.112,0.592-0.203c0.158-0.066,0.327-0.162,0.507-0.281
		s0.305-0.204,0.465-0.309l0.005,0.01l-0.045,0.198c-0.001,0.001-0.003,0.003-0.003,0.005l0.002,0.003
		c-0.052,0.239,0.092,0.438,0.328,0.461l0.003,0.004h0.021l0.001,0.002c0.157,0,0.696-0.001,0.947-0.002h0.176
		c0.012,0,0.014-0.004,0.017-0.006c0.242-0.031,0.474-0.228,0.528-0.462l0.898-3.88c0.021-0.092,0.037-0.196,0.047-0.317
		c0.012-0.124,0.024-0.224,0.021-0.297C90.118,21.41,89.882,21.003,89.416,20.743"/>
	<path clip-path="url(#SVGID_8_)" fill="#336698" d="M116.012,18.523h-1.102c-0.001,0-0.002,0-0.002,0h-0.001
		c-0.252,0-0.508,0.193-0.579,0.439c-0.003,0.01-0.008,0.019-0.01,0.03c0,0-0.026,0.119-0.072,0.327l-1.513,6.856
		c-0.035,0.155-0.058,0.256-0.065,0.283l0.003,0.004c-0.052,0.238,0.093,0.437,0.328,0.46l0.003,0.004h1.144
		c0.251,0,0.505-0.191,0.579-0.435c0.003-0.011,0.009-0.021,0.012-0.033l1.65-7.467l-0.003-0.001
		C116.439,18.735,116.275,18.523,116.012,18.523"/>
	<path clip-path="url(#SVGID_8_)" fill="#336698" d="M118.097,20.043c-0.037,0.01-0.079,0.018-0.123,0.025
		c-0.045,0.006-0.085,0.009-0.12,0.009c-0.123,0-0.215-0.033-0.279-0.098c-0.063-0.066-0.095-0.172-0.095-0.317v-0.637h-0.137
		v-0.169h0.137v-0.345h0.201v0.345h0.416v0.169h-0.416v0.546c0,0.063,0.002,0.112,0.004,0.147c0.003,0.036,0.013,0.069,0.031,0.1
		c0.015,0.028,0.036,0.049,0.063,0.062c0.028,0.014,0.07,0.02,0.126,0.02c0.033,0,0.068-0.005,0.104-0.014
		c0.035-0.01,0.061-0.018,0.077-0.024h0.01V20.043"/>
	<path clip-path="url(#SVGID_8_)" fill="#336698" d="M120.089,20.054h-0.201v-0.682c0-0.051-0.003-0.101-0.008-0.149
		c-0.004-0.048-0.016-0.086-0.029-0.115c-0.017-0.031-0.04-0.054-0.071-0.07c-0.03-0.015-0.075-0.023-0.133-0.023
		c-0.057,0-0.113,0.014-0.169,0.042c-0.057,0.028-0.113,0.064-0.17,0.108c0.002,0.016,0.004,0.036,0.005,0.057
		c0.002,0.022,0.003,0.044,0.003,0.065v0.767h-0.202v-0.682c0-0.053-0.002-0.103-0.007-0.151c-0.004-0.047-0.015-0.085-0.029-0.114
		c-0.017-0.031-0.041-0.054-0.07-0.069c-0.031-0.016-0.075-0.023-0.133-0.023c-0.056,0-0.11,0.014-0.166,0.041
		c-0.056,0.027-0.11,0.061-0.166,0.103v0.895h-0.201v-1.198h0.201v0.133c0.063-0.052,0.126-0.093,0.188-0.122
		c0.063-0.029,0.128-0.044,0.2-0.044c0.081,0,0.149,0.017,0.207,0.051c0.057,0.035,0.099,0.082,0.127,0.143
		c0.082-0.069,0.156-0.118,0.223-0.149c0.067-0.03,0.14-0.045,0.216-0.045c0.132,0,0.229,0.04,0.291,0.119
		c0.062,0.08,0.095,0.191,0.095,0.334V20.054"/>
</g>
<rect x="72.71" y="12.569" fill="none" stroke="#00427A" width="49.024" height="20.875"/>
</svg>
