<?xml version="1.0" encoding="utf-8"?>
<!-- Generator: Adobe Illustrator 16.0.0, SVG Export Plug-In . SVG Version: 6.00 Build 0)  -->
<!DOCTYPE svg PUBLIC "-//W3C//DTD SVG 1.1//EN" "http://www.w3.org/Graphics/SVG/1.1/DTD/svg11.dtd">
<svg version="1.1" id="Layer_1" xmlns="http://www.w3.org/2000/svg" xmlns:xlink="http://www.w3.org/1999/xlink" x="0px" y="0px"
	 width="128.648px" height="48px" viewBox="0 0 128.648 48" enable-background="new 0 0 128.648 48" xml:space="preserve">
<g>
	<defs>
		<rect id="SVGID_1_" x="-3.96" y="-12.403" width="144" height="72"/>
	</defs>
	<clipPath id="SVGID_2_">
		<use xlink:href="#SVGID_1_"  overflow="visible"/>
	</clipPath>
	<path clip-path="url(#SVGID_2_)" fill="#005496" d="M5.531,0C5.531,0,0,0,0,5.531v36.938C0,42.469,0,48,5.531,48h117.586
		c0,0,5.531,0,5.531-5.531V5.531c0,0,0-5.531-5.531-5.531H5.531z"/>
</g>
<g>
	<path fill="#FFFFFF" d="M60.748,26.719c0,1.356-0.488,2.425-1.464,3.206s-2.334,1.171-4.074,1.171
		c-1.603,0-3.021-0.301-4.253-0.903v-2.96c1.014,0.452,1.872,0.771,2.574,0.956s1.344,0.277,1.927,0.277
		c0.698,0,1.234-0.134,1.608-0.4c0.373-0.268,0.56-0.665,0.56-1.192c0-0.294-0.082-0.557-0.247-0.786
		c-0.164-0.229-0.406-0.45-0.724-0.662c-0.318-0.213-0.968-0.552-1.947-1.018c-0.918-0.432-1.606-0.846-2.065-1.243
		c-0.459-0.397-0.826-0.859-1.1-1.387c-0.274-0.527-0.411-1.144-0.411-1.849c0-1.329,0.45-2.374,1.351-3.134
		c0.9-0.76,2.146-1.141,3.735-1.141c0.781,0,1.525,0.093,2.234,0.277c0.709,0.185,1.451,0.445,2.225,0.781l-1.027,2.476
		c-0.802-0.329-1.464-0.558-1.988-0.688c-0.524-0.13-1.04-0.195-1.546-0.195c-0.603,0-1.065,0.141-1.387,0.421
		c-0.322,0.281-0.482,0.647-0.482,1.099c0,0.281,0.065,0.526,0.195,0.735c0.13,0.209,0.337,0.411,0.622,0.606
		c0.284,0.195,0.958,0.546,2.019,1.053c1.404,0.671,2.367,1.345,2.887,2.02C60.488,24.912,60.748,25.739,60.748,26.719z"/>
	<path fill="#FFFFFF" d="M74.669,30.891h-3.133v-6.709c0-1.658-0.617-2.487-1.85-2.487c-0.877,0-1.51,0.298-1.901,0.894
		c-0.391,0.596-0.585,1.562-0.585,2.897v5.404h-3.134V14.903H67.2v3.257c0,0.253-0.024,0.849-0.072,1.788l-0.072,0.925h0.165
		c0.699-1.124,1.808-1.685,3.329-1.685c1.35,0,2.373,0.363,3.072,1.089c0.697,0.726,1.047,1.768,1.047,3.124V30.891z"/>
	<path fill="#FFFFFF" d="M86.011,30.891l-0.605-1.562h-0.083c-0.527,0.664-1.07,1.125-1.628,1.382
		c-0.559,0.257-1.286,0.385-2.184,0.385c-1.103,0-1.971-0.314-2.604-0.945c-0.634-0.63-0.95-1.527-0.95-2.691
		c0-1.219,0.426-2.118,1.279-2.697c0.853-0.579,2.139-0.899,3.857-0.96l1.993-0.062v-0.503c0-1.164-0.596-1.747-1.787-1.747
		c-0.918,0-1.997,0.277-3.236,0.833l-1.038-2.117c1.322-0.692,2.788-1.038,4.397-1.038c1.541,0,2.723,0.335,3.545,1.007
		s1.232,1.692,1.232,3.062v7.655H86.011z M85.086,25.568l-1.212,0.041c-0.911,0.027-1.589,0.192-2.034,0.493
		c-0.445,0.302-0.668,0.761-0.668,1.377c0,0.884,0.507,1.325,1.521,1.325c0.726,0,1.307-0.209,1.741-0.627
		c0.436-0.417,0.652-0.972,0.652-1.664V25.568z"/>
	<path fill="#FFFFFF" d="M98.658,19.188c0.424,0,0.777,0.031,1.058,0.092l-0.236,2.938c-0.253-0.068-0.562-0.103-0.925-0.103
		c-1,0-1.779,0.257-2.337,0.771c-0.559,0.514-0.838,1.233-0.838,2.157v5.847h-3.134V19.404h2.374l0.462,1.932h0.154
		c0.356-0.644,0.838-1.163,1.443-1.557C97.286,19.385,97.945,19.188,98.658,19.188z"/>
	<path fill="#FFFFFF" d="M107.821,31.096c-1.85,0-3.295-0.51-4.336-1.53s-1.562-2.466-1.562-4.336c0-1.925,0.481-3.413,1.443-4.464
		c0.963-1.051,2.293-1.577,3.992-1.577c1.623,0,2.887,0.462,3.791,1.387c0.904,0.924,1.356,2.202,1.356,3.832v1.521h-7.408
		c0.034,0.891,0.298,1.586,0.791,2.086s1.185,0.75,2.075,0.75c0.692,0,1.347-0.072,1.963-0.216s1.26-0.373,1.932-0.688v2.425
		c-0.548,0.274-1.134,0.478-1.757,0.611C109.479,31.029,108.719,31.096,107.821,31.096z M107.38,21.417
		c-0.665,0-1.186,0.21-1.562,0.632c-0.376,0.421-0.592,1.019-0.646,1.793h4.397c-0.014-0.774-0.216-1.372-0.606-1.793
		S108.044,21.417,107.38,21.417z"/>
</g>
<g>
	<defs>
		<rect id="SVGID_3_" x="15.791" y="8.682" width="26.587" height="26.586"/>
	</defs>
	<clipPath id="SVGID_4_">
		<use xlink:href="#SVGID_3_"  overflow="visible"/>
	</clipPath>
	<path clip-path="url(#SVGID_4_)" fill="#FFFFFF" d="M29.085,9.119l-13.295,9.926V34.83h26.587V19.045L29.085,9.119z M25.408,16.202
		c0.39-0.713,0.928-1.25,1.61-1.606c0.68-0.359,1.456-0.54,2.334-0.54c0.74,0,1.401,0.145,1.979,0.432
		c0.578,0.291,1.018,0.7,1.326,1.232c0.301,0.533,0.457,1.115,0.457,1.744c0,0.751-0.232,1.431-0.696,2.038
		c-0.581,0.766-1.324,1.149-2.233,1.149c-0.244,0-0.427-0.041-0.552-0.127c-0.122-0.088-0.208-0.211-0.249-0.378
		c-0.341,0.339-0.746,0.508-1.2,0.508c-0.489,0-0.895-0.169-1.217-0.504c-0.323-0.338-0.484-0.789-0.484-1.347
		c0-0.697,0.193-1.326,0.583-1.896c0.473-0.697,1.075-1.047,1.813-1.047c0.525,0,0.913,0.201,1.161,0.604l0.111-0.491h1.17
		l-0.668,3.169c-0.042,0.202-0.062,0.329-0.062,0.388c0,0.077,0.017,0.127,0.049,0.166c0.033,0.038,0.075,0.056,0.12,0.056
		c0.145,0,0.327-0.083,0.55-0.257c0.301-0.222,0.544-0.527,0.729-0.901c0.185-0.378,0.28-0.769,0.28-1.173
		c0-0.724-0.261-1.329-0.786-1.82c-0.526-0.485-1.26-0.73-2.199-0.73c-0.8,0-1.476,0.162-2.031,0.49
		c-0.555,0.323-0.974,0.783-1.259,1.376c-0.28,0.588-0.42,1.205-0.42,1.845c0,0.62,0.16,1.187,0.472,1.696
		c0.316,0.512,0.755,0.883,1.322,1.118c0.567,0.233,1.218,0.35,1.948,0.35c0.701,0,1.307-0.098,1.816-0.295
		c0.509-0.196,0.915-0.487,1.225-0.883h0.939c-0.295,0.599-0.745,1.067-1.354,1.409c-0.699,0.389-1.551,0.582-2.555,0.582
		c-0.975,0-1.814-0.163-2.521-0.491c-0.709-0.329-1.233-0.814-1.581-1.454c-0.344-0.641-0.513-1.34-0.513-2.095
		C24.822,17.691,25.016,16.918,25.408,16.202 M16.729,19.359l9.808,6.578l-9.808,7.593V19.359z M17.474,34.034l11.612-8.987
		l11.609,8.987H17.474z M41.439,33.529l-9.807-7.593l9.807-6.578V33.529z M29.564,16.925c0.156,0.177,0.234,0.433,0.234,0.766
		c0,0.298-0.058,0.621-0.172,0.963c-0.111,0.346-0.248,0.61-0.404,0.789c-0.106,0.125-0.22,0.218-0.332,0.276
		c-0.146,0.083-0.302,0.124-0.471,0.124c-0.225,0.002-0.411-0.089-0.565-0.266c-0.151-0.177-0.225-0.45-0.225-0.824
		c0-0.28,0.053-0.603,0.163-0.966c0.11-0.363,0.27-0.64,0.485-0.838c0.217-0.197,0.45-0.295,0.702-0.295
		C29.215,16.656,29.413,16.746,29.564,16.925"/>
</g>
</svg>
